<svg width="42" height="42" viewBox="0 0 42 42" fill="none" xmlns="http://www.w3.org/2000/svg">
<path d="M39.0515 20.7286C39.0515 30.7405 30.9349 38.8662 20.9139 38.8662C10.8929 38.8662 2.77637 30.7405 2.77637 20.7286C2.77637 10.7076 10.8929 2.59106 20.9139 2.59106C30.9349 2.59106 39.0515 10.7076 39.0515 20.7286Z" fill="white"/>
<path d="M29.416 16.1391C29.317 16.1968 26.9609 17.4153 26.9609 20.117C27.0719 23.1981 29.9342 24.2786 29.9833 24.2786C29.9342 24.3363 29.5511 25.7505 28.4165 27.233C27.5161 28.5099 26.5167 29.7974 24.999 29.7974C23.5554 29.7974 23.0372 28.9464 21.3715 28.9464C19.5827 28.9464 19.0766 29.7974 17.707 29.7974C16.1893 29.7974 15.1159 28.441 14.1664 27.176C12.9328 25.5203 11.8843 22.9221 11.8473 20.4274C11.8223 19.1054 12.0943 17.806 12.7847 16.7022C13.7592 15.1613 15.4989 14.1152 17.3988 14.0807C18.8545 14.035 20.15 15.012 21.0384 15.012C21.8897 15.012 23.4814 14.0807 25.2823 14.0807C26.0596 14.0815 28.1325 14.2997 29.416 16.1391ZM20.9153 13.8168C20.6562 12.6095 21.3715 11.4023 22.0378 10.6322C22.8892 9.7009 24.2338 9.06879 25.3933 9.06879C25.4674 10.276 24.9982 11.46 24.1598 12.3224C23.4074 13.2537 22.1118 13.9548 20.9153 13.8168Z" fill="#283544"/>
</svg>
