<svg width="5" height="3" viewBox="0 0 5 3" fill="none" xmlns="http://www.w3.org/2000/svg">
<path d="M2.03191 1.952C2.09591 1.952 2.15991 1.952 2.22391 1.952C2.28791 1.944 2.35191 1.94 2.41591 1.94C2.60791 1.94 2.79591 1.948 2.97991 1.964C3.17191 1.98 3.36391 2 3.55591 2.024C3.29191 2 3.02391 1.988 2.75191 1.988C2.48791 1.988 2.22391 1.996 1.95991 2.012C1.69591 2.02 1.42391 2.024 1.14391 2.024H0.999906C0.935906 1.984 0.875906 1.96 0.819906 1.952C0.771906 1.936 0.727906 1.92 0.687906 1.904C0.647906 1.888 0.615906 1.86 0.591906 1.82C0.575906 1.78 0.567906 1.708 0.567906 1.604C0.567906 1.564 0.575906 1.532 0.591906 1.508C0.607906 1.476 0.635906 1.46 0.675906 1.46L0.747906 1.34C0.659906 1.292 0.591906 1.228 0.543906 1.148C0.503906 1.06 0.483906 0.972 0.483906 0.884C0.483906 0.748 0.539906 0.656 0.651906 0.608C0.763906 0.56 0.887906 0.536 1.02391 0.536C1.11191 0.536 1.19591 0.54 1.27591 0.548C1.35591 0.556 1.43991 0.56 1.52791 0.56C1.65591 0.56 1.77991 0.552 1.89991 0.536C2.01991 0.512 2.13991 0.5 2.25991 0.5C2.33191 0.5 2.43191 0.504 2.55991 0.512C2.68791 0.52 2.82791 0.536 2.97991 0.56C3.13191 0.576 3.27991 0.6 3.42391 0.632C3.57591 0.656 3.70791 0.688 3.81991 0.728C3.87591 0.728 3.93191 0.724 3.98791 0.716C4.05191 0.708 4.10791 0.704 4.15591 0.704C4.23591 0.704 4.28391 0.728 4.29991 0.776C4.31591 0.816 4.32391 0.86 4.32391 0.908V0.944C4.08391 0.944 3.84391 0.94 3.60391 0.932C3.39591 0.916 3.19191 0.888 2.99191 0.848C3.18391 0.896 3.38791 0.924 3.60391 0.932C3.85191 0.948 4.09191 0.976 4.32391 1.016C4.30791 1.08 4.29991 1.128 4.29991 1.16C4.29991 1.168 4.29991 1.176 4.29991 1.184C4.30791 1.192 4.31191 1.2 4.31191 1.208L4.41991 1.232C4.48391 1.304 4.51591 1.392 4.51591 1.496C4.51591 1.624 4.47591 1.748 4.39591 1.868L4.34791 1.844C4.14791 1.78 3.91191 1.736 3.63991 1.712C3.36791 1.688 3.14391 1.676 2.96791 1.676C2.90391 1.676 2.83991 1.68 2.77591 1.688C2.71191 1.688 2.64791 1.688 2.58391 1.688C2.87991 1.72 3.17591 1.744 3.47191 1.76C3.77591 1.776 4.06791 1.84 4.34791 1.952C4.27591 2.04 4.20791 2.084 4.14391 2.084C4.04791 2.068 3.96391 2.056 3.89191 2.048C3.82791 2.04 3.75191 2.032 3.66391 2.024L3.57991 1.892C3.53991 1.9 3.49591 1.908 3.44791 1.916C3.40791 1.916 3.36791 1.916 3.32791 1.916C3.16791 1.916 3.01191 1.904 2.85991 1.88C2.71591 1.848 2.56791 1.832 2.41591 1.832C2.29591 1.832 2.16391 1.852 2.01991 1.892C2.02791 1.9 2.03191 1.912 2.03191 1.928V1.952ZM2.93191 0.824C2.94791 0.832 2.96791 0.84 2.99191 0.848C2.97591 0.84 2.95591 0.832 2.93191 0.824Z" fill="white"/>
</svg>
