<svg width="42" height="42" viewBox="0 0 42 42" fill="none" xmlns="http://www.w3.org/2000/svg">
<path d="M39.4109 21.1315C39.4109 19.6402 39.2875 18.5519 39.0202 17.4234H21.6436V24.1543H31.8433C31.6377 25.8271 30.5272 28.3462 28.0595 30.0389L28.0249 30.2643L33.5191 34.4354L33.8997 34.4727C37.3956 31.3086 39.4109 26.6533 39.4109 21.1315Z" fill="#4285F4"/>
<path d="M21.6429 38.8662C26.6399 38.8662 30.8349 37.2539 33.8991 34.4728L28.0588 30.0391C26.496 31.1072 24.3984 31.8528 21.6429 31.8528C16.7487 31.8528 12.5948 28.6889 11.114 24.3157L10.897 24.3338L5.18409 28.6667L5.10938 28.8702C8.15282 34.7952 14.4043 38.8662 21.6429 38.8662Z" fill="#34A853"/>
<path d="M11.1145 24.3158C10.7238 23.1873 10.4977 21.978 10.4977 20.7286C10.4977 19.479 10.7238 18.2699 11.094 17.1414L11.0836 16.901L5.29911 12.4985L5.10985 12.5868C3.85549 15.0454 3.13574 17.8064 3.13574 20.7286C3.13574 23.6507 3.85549 26.4116 5.10985 28.8703L11.1145 24.3158Z" fill="#FBBC05"/>
<path d="M21.643 9.60424C25.1183 9.60424 27.4626 11.0754 28.7993 12.3048L34.0226 7.30686C30.8147 4.38471 26.64 2.59109 21.643 2.59109C14.4044 2.59109 8.15284 6.66194 5.10938 12.5868L11.0935 17.1414C12.5948 12.7683 16.7488 9.60424 21.643 9.60424Z" fill="#EB4335"/>
</svg>
