<svg width="18" height="18" viewBox="0 0 18 18" fill="none" xmlns="http://www.w3.org/2000/svg">
<path d="M1.9443 7.77722H5.83291C6.90228 7.77722 7.77722 6.90228 7.77722 5.83291V1.9443C7.77722 0.874937 6.90228 0 5.83291 0H1.9443C0.874937 0 0 0.874937 0 1.9443V5.83291C0 6.90228 0.874937 7.77722 1.9443 7.77722Z" fill="white"/>
<path d="M1.9443 17.4987H5.83291C6.90228 17.4987 7.77722 16.6238 7.77722 15.5544V11.6658C7.77722 10.5964 6.90228 9.72151 5.83291 9.72151H1.9443C0.874937 9.72151 0 10.5964 0 11.6658V15.5544C0 16.6238 0.874937 17.4987 1.9443 17.4987Z" fill="white"/>
<path d="M9.72144 1.9443V5.83291C9.72144 6.90228 10.5964 7.77722 11.6657 7.77722H15.5543C16.6237 7.77722 17.4987 6.90228 17.4987 5.83291V1.9443C17.4987 0.874937 16.6237 0 15.5543 0H11.6657C10.5964 0 9.72144 0.874937 9.72144 1.9443Z" fill="white"/>
<path d="M11.6657 17.4987H15.5543C16.6237 17.4987 17.4987 16.6238 17.4987 15.5544V11.6658C17.4987 10.5964 16.6237 9.72151 15.5543 9.72151H11.6657C10.5964 9.72151 9.72144 10.5964 9.72144 11.6658V15.5544C9.72144 16.6238 10.5964 17.4987 11.6657 17.4987Z" fill="white"/>
</svg>
