<svg width="19" height="17" viewBox="0 0 19 17" fill="none" xmlns="http://www.w3.org/2000/svg">
<path d="M7.6 17C7.0775 17 6.63021 16.7919 6.25812 16.3758C5.88604 15.9596 5.7 15.4594 5.7 14.875C5.7 14.2906 5.88604 13.7904 6.25812 13.3742C6.63021 12.9581 7.0775 12.75 7.6 12.75H17.1C17.6225 12.75 18.0698 12.9581 18.4419 13.3742C18.814 13.7904 19 14.2906 19 14.875C19 15.4594 18.814 15.9596 18.4419 16.3758C18.0698 16.7919 17.6225 17 17.1 17H7.6ZM7.6 10.625C7.0775 10.625 6.63021 10.4169 6.25812 10.0008C5.88604 9.58464 5.7 9.08438 5.7 8.5C5.7 7.91563 5.88604 7.41536 6.25812 6.99922C6.63021 6.58307 7.0775 6.375 7.6 6.375H17.1C17.6225 6.375 18.0698 6.58307 18.4419 6.99922C18.814 7.41536 19 7.91563 19 8.5C19 9.08438 18.814 9.58464 18.4419 10.0008C18.0698 10.4169 17.6225 10.625 17.1 10.625H7.6ZM7.6 4.25C7.0775 4.25 6.63021 4.04193 6.25812 3.62578C5.88604 3.20964 5.7 2.70938 5.7 2.125C5.7 1.54063 5.88604 1.04036 6.25812 0.624219C6.63021 0.208073 7.0775 0 7.6 0H17.1C17.6225 0 18.0698 0.208073 18.4419 0.624219C18.814 1.04036 19 1.54063 19 2.125C19 2.70938 18.814 3.20964 18.4419 3.62578C18.0698 4.04193 17.6225 4.25 17.1 4.25H7.6ZM1.9 4.25C1.3775 4.25 0.930208 4.04193 0.558125 3.62578C0.186042 3.20964 0 2.70938 0 2.125C0 1.54063 0.186042 1.04036 0.558125 0.624219C0.930208 0.208073 1.3775 0 1.9 0C2.4225 0 2.86979 0.208073 3.24187 0.624219C3.61396 1.04036 3.8 1.54063 3.8 2.125C3.8 2.70938 3.61396 3.20964 3.24187 3.62578C2.86979 4.04193 2.4225 4.25 1.9 4.25ZM1.9 10.625C1.3775 10.625 0.930208 10.4169 0.558125 10.0008C0.186042 9.58464 0 9.08438 0 8.5C0 7.91563 0.186042 7.41536 0.558125 6.99922C0.930208 6.58307 1.3775 6.375 1.9 6.375C2.4225 6.375 2.86979 6.58307 3.24187 6.99922C3.61396 7.41536 3.8 7.91563 3.8 8.5C3.8 9.08438 3.61396 9.58464 3.24187 10.0008C2.86979 10.4169 2.4225 10.625 1.9 10.625ZM1.9 17C1.3775 17 0.930208 16.7919 0.558125 16.3758C0.186042 15.9596 0 15.4594 0 14.875C0 14.2906 0.186042 13.7904 0.558125 13.3742C0.930208 12.9581 1.3775 12.75 1.9 12.75C2.4225 12.75 2.86979 12.9581 3.24187 13.3742C3.61396 13.7904 3.8 14.2906 3.8 14.875C3.8 15.4594 3.61396 15.9596 3.24187 16.3758C2.86979 16.7919 2.4225 17 1.9 17Z" fill="white"/>
</svg>
